<svg width="11" height="11" viewBox="0 0 11 11" fill="none" xmlns="http://www.w3.org/2000/svg">
<path fill-rule="evenodd" clip-rule="evenodd" d="M5.2998 10.5C5.74163 10.5 6.0998 10.1418 6.0998 9.7V6.22727H9.57253C9.97419 6.22727 10.2998 5.90166 10.2998 5.5C10.2998 5.09834 9.97419 4.77273 9.57253 4.77273H6.0998V1.3C6.0998 0.858172 5.74163 0.5 5.2998 0.5C4.85798 0.5 4.4998 0.858173 4.4998 1.3V4.77273H1.02708C0.625416 4.77273 0.299805 5.09834 0.299805 5.5C0.299805 5.90166 0.625415 6.22727 1.02708 6.22727H4.4998V9.7C4.4998 10.1418 4.85798 10.5 5.2998 10.5Z" fill="#595CFF"/>
</svg>
