<svg width="10" height="7" viewBox="0 0 10 7" fill="none" xmlns="http://www.w3.org/2000/svg">
<path d="M9.72849 3.77314L2.15369 6.88817C1.97849 6.96028 1.74462 7 1.49525 7C1.24588 7 1.01201 6.96028 0.836816 6.88817L0.278985 6.65882C-0.0839998 6.50938 -0.0839998 6.26649 0.278985 6.11727L6.63973 3.50145L0.271927 0.882734C0.0967308 0.810629 -5.49495e-07 0.714508 -5.58456e-07 0.612012C-5.67426e-07 0.509404 0.0967308 0.413282 0.271927 0.34112L0.829758 0.111829C1.00509 0.0397243 1.23882 8.45373e-07 1.4882 8.23572e-07C1.73757 8.01771e-07 1.97144 0.0397242 2.14663 0.111829L9.72849 3.22971C9.9041 3.30204 10.0006 3.39861 10 3.50128C10.0006 3.60434 9.9041 3.70086 9.72849 3.77314Z" fill="#B0B0B0"/>
</svg>
