<svg width="12" height="13" viewBox="0 0 12 13" fill="none" xmlns="http://www.w3.org/2000/svg">
<path fill-rule="evenodd" clip-rule="evenodd" d="M5.77408 12.125C6.25307 12.125 6.64137 11.7367 6.64137 11.2577V7.31818H10.3765C10.8283 7.31818 11.1946 6.95187 11.1946 6.5C11.1946 6.04813 10.8283 5.68182 10.3765 5.68182H6.64137V1.74229C6.64137 1.2633 6.25307 0.875 5.77408 0.875C5.29509 0.875 4.90679 1.2633 4.90679 1.74229V5.68182H1.1717C0.719828 5.68182 0.353516 6.04813 0.353516 6.5C0.353516 6.95187 0.719828 7.31818 1.1717 7.31818H4.90679V11.2577C4.90679 11.7367 5.29509 12.125 5.77408 12.125Z" fill="black"/>
</svg>
