<svg width="19" height="29" viewBox="0 0 19 29" fill="none" xmlns="http://www.w3.org/2000/svg">
<path d="M1.44389 15.6316L14.3493 28.5367C14.6477 28.8354 15.0462 29 15.4711 29C15.8959 29 16.2944 28.8354 16.5929 28.5367L17.5432 27.5866C18.1617 26.9674 18.1617 25.9612 17.5432 25.343L6.70629 14.506L17.5553 3.65704C17.8538 3.35832 18.0186 2.9601 18.0186 2.53548C18.0186 2.11039 17.8538 1.71217 17.5553 1.41321L16.6049 0.463295C16.3062 0.164574 15.9079 5.53753e-06 15.4831 5.50039e-06C15.0582 5.46325e-06 14.6598 0.164573 14.3613 0.463295L1.44389 13.3802C1.1447 13.6799 0.980369 14.08 0.981313 14.5053C0.980369 14.9323 1.1447 15.3322 1.44389 15.6316Z" fill="#ADD4A9"/>
</svg>
