<svg width="18" height="18" viewBox="0 0 18 18" fill="none" xmlns="http://www.w3.org/2000/svg">
<path d="M13.1275 0H4.87243C2.18573 0 0 2.18573 0 4.87243V13.1277C0 15.8142 2.18573 18 4.87243 18H13.1277C15.8142 18 18 15.8142 18 13.1277V4.87243C18 2.18573 15.8142 0 13.1275 0V0ZM16.9447 13.1277C16.9447 15.2324 15.2324 16.9447 13.1275 16.9447H4.87243C2.76759 16.9447 1.05523 15.2324 1.05523 13.1277V4.87243C1.05523 2.76759 2.76759 1.05523 4.87243 1.05523H13.1277C15.2324 1.05523 16.9447 2.76759 16.9447 4.87243V13.1277Z" fill="black"/>
<path d="M9.00059 4.07812C6.28669 4.07812 4.07886 6.28596 4.07886 8.99985C4.07886 11.7137 6.28669 13.9216 9.00059 13.9216C11.7145 13.9216 13.9223 11.7137 13.9223 8.99985C13.9223 6.28596 11.7145 4.07812 9.00059 4.07812ZM9.00059 12.8663C6.86869 12.8663 5.13409 11.1319 5.13409 8.99985C5.13409 6.86796 6.86869 5.13336 9.00059 5.13336C11.1326 5.13336 12.8671 6.86796 12.8671 8.99985C12.8671 11.1319 11.1326 12.8663 9.00059 12.8663Z" fill="black"/>
<path d="M14.039 2.33032C13.237 2.33032 12.5847 2.98277 12.5847 3.78463C12.5847 4.58664 13.237 5.23908 14.039 5.23908C14.841 5.23908 15.4935 4.58664 15.4935 3.78463C15.4935 2.98263 14.841 2.33032 14.039 2.33032ZM14.039 4.18371C13.819 4.18371 13.64 4.00464 13.64 3.78463C13.64 3.5645 13.819 3.38556 14.039 3.38556C14.2592 3.38556 14.4382 3.5645 14.4382 3.78463C14.4382 4.00464 14.2592 4.18371 14.039 4.18371Z" fill="black"/>
</svg>
