<svg width="22" height="32" viewBox="0 0 22 32" fill="none" xmlns="http://www.w3.org/2000/svg">
<path d="M5.83175 31.9996C2.27459 20.2782 9.79079 15.9984 9.79079 15.9984C9.26491 22.253 12.8193 27.1259 12.8193 27.1259C14.1265 26.7314 16.6217 24.8881 16.6217 24.8881C16.6217 27.1259 15.3051 31.9968 15.3051 31.9968C15.3051 31.9968 19.914 28.4331 21.3649 22.5141C22.8138 16.5951 18.6049 10.6529 18.6049 10.6529C18.8585 14.8422 17.4413 18.9625 14.6645 22.1104C14.8035 21.95 14.92 21.7719 15.0095 21.5789C15.5084 20.5812 16.3093 17.9882 15.8403 11.9834C15.1802 3.55437 7.54274 0 7.54274 0C8.20102 5.13575 6.2271 6.31898 1.60325 16.0674C-3.0206 25.8139 5.83175 31.9996 5.83175 31.9996Z" fill="white"/>
</svg>
