<svg width="9" height="5" viewBox="0 0 9 5" fill="none" xmlns="http://www.w3.org/2000/svg">
<path d="M4.80866 4.69712L8.32824 1.17747C8.40971 1.09607 8.45459 0.987401 8.45459 0.87153C8.45459 0.75566 8.40971 0.646991 8.32824 0.565586L8.06911 0.306389C7.90025 0.137727 7.62581 0.137727 7.45722 0.306389L4.50169 3.26192L1.54287 0.303109C1.46141 0.221704 1.3528 0.176758 1.23699 0.176757C1.12106 0.176757 1.01246 0.221704 0.930922 0.303109L0.671853 0.562306C0.590384 0.643776 0.545502 0.75238 0.545502 0.868251C0.545502 0.984121 0.590383 1.09279 0.671853 1.17419L4.19465 4.69712C4.27637 4.77872 4.38549 4.82353 4.50149 4.82328C4.61794 4.82353 4.727 4.77872 4.80866 4.69712Z" fill="#ADD4A9"/>
</svg>
