<svg width="19" height="29" viewBox="0 0 19 29" fill="none" xmlns="http://www.w3.org/2000/svg">
<path d="M17.5561 15.6316L4.65074 28.5367C4.35226 28.8354 3.9538 29 3.52894 29C3.10409 29 2.70563 28.8354 2.40715 28.5367L1.45676 27.5866C0.838333 26.9674 0.838333 25.9612 1.45676 25.343L12.2937 14.506L1.44473 3.65704C1.14625 3.35832 0.981443 2.9601 0.981443 2.53548C0.981443 2.11039 1.14625 1.71217 1.44473 1.41321L2.39512 0.463295C2.69384 0.164574 3.09206 5.53753e-06 3.51692 5.50039e-06C3.94178 5.46325e-06 4.34023 0.164573 4.63871 0.463295L17.5561 13.3802C17.8553 13.6799 18.0196 14.08 18.0187 14.5053C18.0196 14.9323 17.8553 15.3322 17.5561 15.6316Z" fill="#ADD4A9"/>
</svg>
